<svg xmlns="http://www.w3.org/2000/svg" xmlns:xlink="http://www.w3.org/1999/xlink" width="336" height="102" viewBox="0 0 336 102">
  <defs>
    <path id="bi-b" d="M224.376887,71.6260383 C224.377114,71.5843516 224.377227,71.5425209 224.377227,71.500542 L224.377227,9.84794429 C224.377227,8.82735284 223.54732,8 222.523579,8 C221.499837,8 220.669931,8.82735284 220.669931,9.84794429 L220.669931,71.500542 C220.669931,72.3988382 220.608356,73.1855399 220.472372,73.9299266 C219.961003,76.7318929 218.512938,78.7049379 216.394791,79.1809531 C215.39611,79.4053886 214.769022,80.3944294 214.99415,81.3900375 C215.219278,82.3856457 216.211372,83.0108046 217.210053,82.7863691 C219.51234,82.2689717 221.288966,80.8773703 222.49779,78.9420589 C224.006025,81.4123586 226.425619,82.9875867 229.674545,82.9875867 C230.698287,82.9875867 231.528193,82.1602338 231.528193,81.1396424 C231.528193,80.1190509 230.698287,79.2916981 229.674545,79.2916981 C226.350099,79.2916981 224.377126,76.1102595 224.377126,71.6560203 C224.377126,71.6460075 224.377046,71.6360133 224.376887,71.6260383 Z M202.917538,63.2776118 C202.91768,63.1768404 202.91774,63.1115781 202.91774,63.0630156 L202.91774,42.6420922 C202.91774,41.6215008 202.087833,40.7941479 201.064092,40.7941479 C200.04035,40.7941479 199.210444,41.6215008 199.210444,42.6420922 L199.210444,59.0116908 C199.21031,59.0208584 199.210242,59.0300422 199.210242,59.0392416 L199.210242,63.2750857 C199.210012,63.4377167 199.209564,63.6952716 199.208801,64.1299376 C199.208315,64.4328482 199.207924,64.7265592 199.207642,65.0128672 C199.0724,72.0449933 193.67594,77.9215503 186.465308,79.086164 C185.454743,79.2493837 184.768242,80.1984034 184.931966,81.2058587 C185.095689,82.213314 186.047638,82.8977022 187.058203,82.7344825 C192.256551,81.8948796 196.71319,79.0594224 199.566455,75.0913642 C200.404624,78.9485834 202.707887,81.9618378 206.377771,82.7862526 C207.376471,83.0106039 208.368511,82.3853612 208.593555,81.3897341 C208.818599,80.3941069 208.191426,79.405119 207.192726,79.1807678 C204.848778,78.6542155 203.334783,76.283405 202.991048,73.0695058 C202.952053,72.7037609 202.92547,70.8336408 202.917422,68.1591304 C202.914427,67.1637879 202.913837,66.162632 202.914904,65.0491579 C202.916658,64.9470668 202.917538,64.8447759 202.917538,64.7422918 L202.917538,63.2776118 Z M250.052552,77.4023197 C250.052552,80.4869586 247.544357,82.9874358 244.450198,82.9874358 C241.356013,82.9874358 238.847182,80.4869337 238.847182,77.4023197 C238.847182,74.3177057 241.356013,71.8172036 244.450198,71.8172036 C247.544357,71.8172036 250.052552,74.3176808 250.052552,77.4023197 Z M246.345256,77.4023197 C246.345256,76.3588637 245.496874,75.5130922 244.450198,75.5130922 C243.403294,75.5130922 242.554478,76.3590902 242.554478,77.4023197 C242.554478,78.4455491 243.403294,79.2915472 244.450198,79.2915472 C245.496874,79.2915472 246.345256,78.4457757 246.345256,77.4023197 Z M308.526053,39.979172 C309.536424,39.8147673 310.48918,40.4980387 310.654092,41.5053013 C310.819004,42.512564 310.133624,43.462388 309.123252,43.6267926 C306.36327,44.0758888 303.665693,44.9950519 302.214153,46.5293656 C300.672531,48.1593402 300.17356,50.2986202 300.913002,52.2576364 C301.628753,54.1527763 303.405172,55.7336946 305.770241,56.7370001 C306.085752,56.8708966 308.010041,57.2999373 309.932931,57.8897664 C310.03397,57.9207478 310.03397,57.9207478 310.135111,57.9517169 C311.283248,58.3031506 314.078937,59.1455007 314.083343,59.146853 C314.228969,59.1915232 314.380387,59.2371666 314.541755,59.2851026 C314.828264,59.3702128 315.014101,59.4242081 315.599947,59.5933729 C318.912125,60.5497746 320.446243,61.130088 322.267278,62.3397395 C325.350019,64.3865925 327.176766,67.2177892 327.176766,70.6673172 C327.176766,70.7771957 327.17724,70.8670789 327.178665,71.0694645 C327.183622,71.7731414 327.180127,72.0935271 327.152616,72.5169503 C327.114993,73.0960164 327.0346,73.6271 326.892784,74.1516208 C326.315838,76.2834094 325.186593,77.8402683 323.311245,79.341261 C320.868416,81.2972774 318.23108,82.3049561 314.792424,82.7651288 C313.777784,82.9009115 312.844842,82.1909872 312.70864,81.1794686 C312.572438,80.1679499 313.284553,79.2378784 314.299194,79.1020957 C317.109923,78.7259544 319.117388,77.9589383 320.989996,76.4595073 C322.292381,75.4171035 322.95926,74.4976966 323.313359,73.1893168 C323.385966,72.9207695 323.430376,72.6273989 323.453073,72.2780597 C323.472942,71.9722563 323.475795,71.7106958 323.471461,71.0954164 C323.469975,70.8844077 323.46947,70.7887085 323.46947,70.6673172 C323.46947,68.5799331 322.339087,66.8280009 320.211905,65.4156116 C318.804888,64.4809787 317.527263,63.9976893 314.568543,63.1433496 C313.97281,62.9713299 313.782162,62.9159365 313.48307,62.8270885 C313.311606,62.7761535 313.149755,62.7273652 312.992759,62.6792073 C312.999831,62.6813781 310.205998,61.839587 309.046976,61.4848216 C308.944806,61.4535376 308.944806,61.4535376 308.842682,61.4222236 C306.718519,60.7706557 304.813665,60.3478723 304.318408,60.1376949 C301.096201,58.7707761 298.558565,56.5124147 297.443358,53.5596085 C296.188971,50.236341 297.032261,46.620831 299.516973,43.993717 C301.607227,41.7842667 305.031977,40.5477176 308.526053,39.979172 Z M327.988495,50.5484561 C328.101569,51.562803 327.368406,52.4764767 326.350928,52.5892034 C325.333451,52.7019301 324.416957,51.9710226 324.303883,50.9566757 C323.894442,47.2837497 319.808595,44.3087723 315.063242,43.5914628 C314.05107,43.4384625 313.354956,42.4964281 313.508429,41.4873702 C313.661902,40.4783124 314.606844,39.7843407 315.619016,39.9373411 C321.840768,40.8778238 327.3583,44.8952362 327.988495,50.5484561 Z M161.17747,42.6420922 C161.17747,41.6215008 162.007376,40.7941479 163.031117,40.7941479 C164.054859,40.7941479 164.884765,41.6215008 164.884765,42.6420922 L164.884765,64.7425433 C164.884765,71.8938428 170.327067,77.9068681 177.629718,79.0864185 C178.640281,79.2496482 179.326772,80.1986747 179.163039,81.2061284 C178.999305,82.2135821 178.04735,82.8979608 177.036786,82.734731 C167.982205,81.2722026 161.17747,73.753868 161.17747,64.7425433 L161.17747,42.6420922 Z M128.062165,41.0472521 C129.07273,40.8840324 130.024678,41.5684206 130.188402,42.5758759 C130.352125,43.5833312 129.665625,44.5323509 128.65506,44.6955706 C121.352138,45.8750903 115.910126,51.8879426 115.910126,59.0394428 L115.910126,64.742493 C115.910126,71.8939932 121.352138,77.9068455 128.65506,79.0863652 C129.665625,79.2495849 130.352125,80.1986046 130.188402,81.2060599 C130.024678,82.2135152 129.07273,82.8979034 128.062165,82.7346837 C119.007271,81.2721972 112.20283,73.7540037 112.20283,64.742493 L112.20283,59.0394428 C112.20283,50.0279321 119.007271,42.5097386 128.062165,41.0472521 Z M139.010135,82.7344825 C137.99957,82.8977022 137.047621,82.213314 136.883898,81.2058587 C136.720174,80.1984034 137.406675,79.2493837 138.417239,79.086164 C145.720162,77.9066443 151.162174,71.893792 151.162174,64.7422918 L151.162174,59.0392416 C151.162174,51.8877414 145.720162,45.8748891 138.417239,44.6953694 C137.406675,44.5321497 136.720174,43.58313 136.883898,42.5756747 C137.047621,41.5682194 137.99957,40.8838312 139.010135,41.0470509 C148.065028,42.5095374 154.86947,50.0277309 154.86947,59.0392416 L154.86947,64.7422918 C154.86947,73.7538025 148.065028,81.2719959 139.010135,82.7344825 Z M89.2999994,82.7957701 C88.284351,82.9238454 87.3568592,82.2068586 87.2283886,81.1943352 C87.099918,80.1818118 87.8191177,79.2571739 88.8347662,79.1290986 C94.4025729,78.426987 98.9296095,75.487743 100.604978,71.0100396 C100.962761,70.0538048 102.030375,69.5677713 102.989561,69.9244532 C103.948747,70.2811352 104.436281,71.3454644 104.078498,72.3016992 C101.868737,78.2076562 96.1283197,81.9347052 89.2999994,82.7957701 Z M78.4157874,41.047264 C79.4263455,40.8840038 80.3783218,41.5683539 80.5420858,42.5758027 C80.7058499,43.5832515 80.0193876,44.5322986 79.0088294,44.6955587 C75.0469107,45.3356243 71.49277,47.4339649 69.1335426,50.5588617 C66.6888839,53.7973123 66.2638213,55.8283276 66.2638213,61.8904649 C66.2638213,67.9531252 66.6893869,69.9858196 69.1349398,73.2244288 C71.4937298,76.3484492 75.0473959,78.4463161 79.0088627,79.0863824 C80.0194179,79.2496609 80.7058629,80.1987205 80.5420804,81.2061663 C80.378298,82.2136121 79.4263092,82.8979449 78.415754,82.7346664 C73.5205881,81.9437394 69.1141614,79.3424549 66.173037,75.4471811 C63.1280574,71.41476 62.5565256,68.6848653 62.5565256,61.8904649 C62.5565256,55.0967487 63.1274563,52.3687532 66.1714192,48.3364015 C69.1130916,44.4400317 73.5200526,41.8381917 78.4157874,41.047264 Z M105.223418,61.1779609 C105.223418,62.1985523 104.393511,63.0259052 103.36977,63.0259052 C102.346029,63.0259052 101.516122,62.1985523 101.516122,61.1779609 C101.516125,61.1116023 101.516125,61.1116023 101.516133,61.0454336 C101.516388,58.9499593 101.486131,58.0484082 101.338869,56.9586316 C101.261099,56.3831104 101.153127,55.8440341 101.009211,55.3259041 C100.488522,53.4520388 99.6729595,51.853854 98.4515501,50.306816 C96.0913897,47.3180948 92.6214557,45.3172981 88.7711368,44.6953109 C87.7605765,44.5320632 87.0741025,43.5830246 87.237854,42.5755738 C87.4016055,41.568123 88.3535732,40.8837612 89.3641334,41.0470088 C94.121583,41.8155355 98.4229775,44.2957602 101.3646,48.0207992 C102.888629,49.9511355 103.9293,51.9904449 104.58201,54.3394283 C104.772661,55.0258182 104.913475,55.728862 105.012976,56.4652011 C105.189731,57.7732385 105.223703,58.7854879 105.223429,61.0458815 C105.223421,61.1119753 105.223421,61.1119753 105.223418,61.1779609 Z M27.5680112,78.7340505 C28.5756425,78.9143963 29.2458386,79.8749287 29.0649362,80.8794596 C28.8840337,81.8839904 27.9205367,82.5521244 26.9129055,82.3717786 C17.5089849,80.688665 9.165709,74.7001743 8.01728236,66.3199971 C7.8787069,65.308799 8.58863743,64.3770689 9.60295658,64.2389198 C10.6172757,64.1007708 11.5518815,64.8085169 11.6904569,65.8197151 C12.5762423,72.2833742 19.5687662,77.3023457 27.5680112,78.7340505 Z M26.9286618,13.8629806 C27.9378166,13.69131 28.8954944,14.3677079 29.0676948,15.3737576 C29.2398953,16.3798074 28.5614097,17.3345384 27.5522549,17.506209 C22.957452,18.287846 19.4036566,19.9094603 16.9056046,22.6699863 C14.1521925,25.7135281 13.2441,29.7838399 14.5910703,33.5145981 C15.8565907,37.0177058 18.9112959,39.8598005 22.9252548,41.6399949 C23.477469,41.8849959 25.5900675,42.5960604 28.7032691,43.5944138 C28.864182,43.645997 28.864182,43.645997 29.0252424,43.6975545 C30.8533419,44.282553 35.2968348,45.6822479 35.3007339,45.6834991 C35.529701,45.7569263 35.767307,45.8318368 36.0196918,45.9102716 C36.4836567,46.0544601 36.7841829,46.1457659 37.7278314,46.4306479 C42.8915604,47.9895477 45.2588294,48.9257442 48.0346266,50.8530181 C52.6392403,54.0493214 55.3199602,58.3929062 55.3199602,63.6527251 C55.3199602,63.8393865 55.3207237,63.9908098 55.3230102,64.3301848 C55.3306791,65.4684214 55.3253397,65.9801048 55.2841857,66.6423061 C55.2293998,67.5238552 55.1136996,68.3229226 54.9114638,69.1049159 C54.0671721,72.3663351 52.4185715,74.7425272 49.6150949,77.0883693 C45.8983551,80.1997045 41.8832697,81.8035277 36.5923849,82.5437558 C35.5785781,82.6855938 34.6413881,81.9812522 34.4991124,80.9705649 C34.3568367,79.9598775 35.0633522,79.0255712 36.0771589,78.8837332 C40.7202553,78.2341348 44.0885158,76.8886854 47.2313891,74.2577419 C49.4793938,72.3766974 50.6859003,70.6377127 51.3216723,68.1817856 C51.4602012,67.6461306 51.5428858,67.0750805 51.583985,66.4137615 C51.618145,65.8640992 51.6228973,65.4086766 51.6157982,64.3550085 C51.6134561,64.0073852 51.6126646,63.8503988 51.6126646,63.6527251 C51.6126646,59.7110389 49.5927504,56.4381613 45.9160387,53.8859632 C43.5590302,52.2494601 41.4563416,51.4178985 36.6533523,49.967904 C35.699257,49.6798682 35.3936321,49.5870133 34.916369,49.4386921 C34.6537593,49.3570796 34.4055938,49.27884 34.1651369,49.2017282 C34.173096,49.2042822 29.7315199,47.805191 27.892175,47.216594 C27.730052,47.1646964 27.730052,47.1646964 27.5680189,47.1127541 C24.2480529,46.0480947 22.1548469,45.3435573 21.4181365,45.0167008 C16.5507313,42.8580023 12.7478429,39.3197986 11.1029663,34.7665886 C9.2804764,29.7187647 10.5060336,24.2254917 14.1527496,20.1945176 C17.2848157,16.7333607 21.5820546,14.7725094 26.9286618,13.8629806 Z M55.3529655,30.3621035 C55.46118,31.3769771 54.7236483,32.28715 53.7056424,32.3950315 C52.6876364,32.5029131 51.7746543,31.7676507 51.6664398,30.7527771 C50.9439112,23.9766498 44.0200775,18.7061316 36.0438352,17.4456352 C35.0327187,17.2858471 34.3429806,16.3391635 34.5032618,15.3311582 C34.6635431,14.3231529 35.6131486,13.635537 36.624265,13.7953251 C46.081261,15.289827 54.4228971,21.6395961 55.3529655,30.3621035 Z M71.4811343,62.262704 C70.4573929,62.262704 69.6274865,61.4353512 69.6274865,60.4147597 C69.6274865,59.3941683 70.4573929,58.5668154 71.4811343,58.5668154 L97.2255826,58.5668154 C98.2493241,58.5668154 99.0792305,59.3941683 99.0792305,60.4147597 C99.0792305,61.4353512 98.2493241,62.262704 97.2255826,62.262704 L71.4811343,62.262704 Z M285.470511,23.5202888 C285.470511,24.5408802 284.640605,25.3682331 283.616863,25.3682331 C282.593122,25.3682331 281.763216,24.5408802 281.763216,23.5202888 L281.763216,14.9652105 C281.763216,13.9446191 282.593122,13.1172663 283.616863,13.1172663 C284.640605,13.1172663 285.470511,13.9446191 285.470511,14.9652105 L285.470511,23.5202888 Z M255.280416,90.4420109 C254.404797,89.9132294 254.124953,88.7769223 254.655367,87.9039979 C255.18578,87.0310734 256.325595,86.7520905 257.201213,87.280872 C261.094676,89.632114 266.112768,90.3096162 270.608801,89.1131083 C274.204088,88.1562231 277.315833,86.082655 279.311349,83.2352686 C280.147218,82.042484 280.731204,80.8285655 281.119546,79.4677011 C281.356079,78.6378183 281.489535,77.7588741 281.548746,76.7324295 C281.591424,75.9926071 281.595522,75.3859915 281.581347,73.9890671 C281.575693,73.43189 281.573767,73.1800041 281.5737,72.862897 C281.57349,66.2073356 281.573322,61.981109 281.572944,53.2957598 C281.572565,44.6103969 281.572397,40.384158 281.572187,33.7285784 C281.572154,32.7079869 282.402035,31.880608 283.425776,31.8805759 C284.449518,31.8805437 285.27945,32.7078705 285.279482,33.728462 C285.279693,40.3840234 285.279861,44.61025 285.280239,53.2955992 C285.280618,61.9809621 285.280786,66.207201 285.280996,72.8624498 C285.281059,73.1629906 285.282922,73.4066613 285.288453,73.9516807 C285.303473,75.4319237 285.299001,76.0939081 285.249927,76.9446233 C285.176122,78.2240523 285.002904,79.3648735 284.685515,80.4784387 C284.182977,82.2394832 283.419682,83.8261252 282.350423,85.3519576 C279.837014,88.9383206 275.979042,91.5091509 271.56501,92.683945 C266.103233,94.1374618 260.045447,93.3195885 255.280416,90.4420109 Z M308.056137,79.0152338 C309.065109,79.1879681 309.742582,80.1434137 309.569314,81.1492814 C309.396047,82.1551491 308.437652,82.8305371 307.42868,82.6578029 C301.252076,81.600379 295.748927,77.8221623 294.969626,72.3827737 C294.824875,71.3724358 295.5291,70.4364121 296.542556,70.2921064 C297.556012,70.1478007 298.494925,70.8498586 298.639676,71.8601965 C299.14008,75.3529356 303.284555,78.1983473 308.056137,79.0152338 Z"/>
    <filter id="bi-a" width="107.5%" height="128.1%" x="-3.8%" y="-14.1%" filterUnits="objectBoundingBox">
      <feOffset in="SourceAlpha" result="shadowOffsetOuter1"/>
      <feGaussianBlur in="shadowOffsetOuter1" result="shadowBlurOuter1" stdDeviation="4"/>
      <feColorMatrix in="shadowBlurOuter1" values="0 0 0 0 0.964705882   0 0 0 0 1   0 0 0 0 0  0 0 0 0.5 0"/>
    </filter>
  </defs>
  <g fill="none">
    <use fill="#000" filter="url(#bi-a)" xlink:href="#bi-b"/>
    <use fill="#F6FF00" fill-rule="evenodd" xlink:href="#bi-b"/>
  </g>
</svg>
