<svg xmlns="http://www.w3.org/2000/svg" xmlns:xlink="http://www.w3.org/1999/xlink" width="340" height="105" viewBox="0 0 340 105">
  <defs>
    <path id="bi_light-b" d="M226.376887,73.6260383 C226.377114,73.5843516 226.377227,73.5425209 226.377227,73.500542 L226.377227,11.8479443 C226.377227,10.8273528 225.54732,10 224.523579,10 C223.499837,10 222.669931,10.8273528 222.669931,11.8479443 L222.669931,73.500542 C222.669931,74.3988382 222.608356,75.1855399 222.472372,75.9299266 C221.961003,78.7318929 220.512938,80.7049379 218.394791,81.1809531 C217.39611,81.4053886 216.769022,82.3944294 216.99415,83.3900375 C217.219278,84.3856457 218.211372,85.0108046 219.210053,84.7863691 C221.51234,84.2689717 223.288966,82.8773703 224.49779,80.9420589 C226.006025,83.4123586 228.425619,84.9875867 231.674545,84.9875867 C232.698287,84.9875867 233.528193,84.1602338 233.528193,83.1396424 C233.528193,82.1190509 232.698287,81.2916981 231.674545,81.2916981 C228.350099,81.2916981 226.377126,78.1102595 226.377126,73.6560203 C226.377126,73.6460075 226.377046,73.6360133 226.376887,73.6260383 Z M204.917538,65.2776118 C204.91768,65.1768404 204.91774,65.1115781 204.91774,65.0630156 L204.91774,44.6420922 C204.91774,43.6215008 204.087833,42.7941479 203.064092,42.7941479 C202.04035,42.7941479 201.210444,43.6215008 201.210444,44.6420922 L201.210444,61.0116908 C201.21031,61.0208584 201.210242,61.0300422 201.210242,61.0392416 L201.210242,65.2750857 C201.210012,65.4377167 201.209564,65.6952716 201.208801,66.1299376 C201.208315,66.4328482 201.207924,66.7265592 201.207642,67.0128672 C201.0724,74.0449933 195.67594,79.9215503 188.465308,81.086164 C187.454743,81.2493837 186.768242,82.1984034 186.931966,83.2058587 C187.095689,84.213314 188.047638,84.8977022 189.058203,84.7344825 C194.256551,83.8948796 198.71319,81.0594224 201.566455,77.0913642 C202.404624,80.9485834 204.707887,83.9618378 208.377771,84.7862526 C209.376471,85.0106039 210.368511,84.3853612 210.593555,83.3897341 C210.818599,82.3941069 210.191426,81.405119 209.192726,81.1807678 C206.848778,80.6542155 205.334783,78.283405 204.991048,75.0695058 C204.952053,74.7037609 204.92547,72.8336408 204.917422,70.1591304 C204.914427,69.1637879 204.913837,68.162632 204.914904,67.0491579 C204.916658,66.9470668 204.917538,66.8447759 204.917538,66.7422918 L204.917538,65.2776118 Z M252.052552,79.4023197 C252.052552,82.4869586 249.544357,84.9874358 246.450198,84.9874358 C243.356013,84.9874358 240.847182,82.4869337 240.847182,79.4023197 C240.847182,76.3177057 243.356013,73.8172036 246.450198,73.8172036 C249.544357,73.8172036 252.052552,76.3176808 252.052552,79.4023197 Z M248.345256,79.4023197 C248.345256,78.3588637 247.496874,77.5130922 246.450198,77.5130922 C245.403294,77.5130922 244.554478,78.3590902 244.554478,79.4023197 C244.554478,80.4455491 245.403294,81.2915472 246.450198,81.2915472 C247.496874,81.2915472 248.345256,80.4457757 248.345256,79.4023197 Z M310.526053,41.979172 C311.536424,41.8147673 312.48918,42.4980387 312.654092,43.5053013 C312.819004,44.512564 312.133624,45.462388 311.123252,45.6267926 C308.36327,46.0758888 305.665693,46.9950519 304.214153,48.5293656 C302.672531,50.1593402 302.17356,52.2986202 302.913002,54.2576364 C303.628753,56.1527763 305.405172,57.7336946 307.770241,58.7370001 C308.085752,58.8708966 310.010041,59.2999373 311.932931,59.8897664 C312.03397,59.9207478 312.03397,59.9207478 312.135111,59.9517169 C313.283248,60.3031506 316.078937,61.1455007 316.083343,61.146853 C316.228969,61.1915232 316.380387,61.2371666 316.541755,61.2851026 C316.828264,61.3702128 317.014101,61.4242081 317.599947,61.5933729 C320.912125,62.5497746 322.446243,63.130088 324.267278,64.3397395 C327.350019,66.3865925 329.176766,69.2177892 329.176766,72.6673172 C329.176766,72.7771957 329.17724,72.8670789 329.178665,73.0694645 C329.183622,73.7731414 329.180127,74.0935271 329.152616,74.5169503 C329.114993,75.0960164 329.0346,75.6271 328.892784,76.1516208 C328.315838,78.2834094 327.186593,79.8402683 325.311245,81.341261 C322.868416,83.2972774 320.23108,84.3049561 316.792424,84.7651288 C315.777784,84.9009115 314.844842,84.1909872 314.70864,83.1794686 C314.572438,82.1679499 315.284553,81.2378784 316.299194,81.1020957 C319.109923,80.7259544 321.117388,79.9589383 322.989996,78.4595073 C324.292381,77.4171035 324.95926,76.4976966 325.313359,75.1893168 C325.385966,74.9207695 325.430376,74.6273989 325.453073,74.2780597 C325.472942,73.9722563 325.475795,73.7106958 325.471461,73.0954164 C325.469975,72.8844077 325.46947,72.7887085 325.46947,72.6673172 C325.46947,70.5799331 324.339087,68.8280009 322.211905,67.4156116 C320.804888,66.4809787 319.527263,65.9976893 316.568543,65.1433496 C315.97281,64.9713299 315.782162,64.9159365 315.48307,64.8270885 C315.311606,64.7761535 315.149755,64.7273652 314.992759,64.6792073 C314.999831,64.6813781 312.205998,63.839587 311.046976,63.4848216 C310.944806,63.4535376 310.944806,63.4535376 310.842682,63.4222236 C308.718519,62.7706557 306.813665,62.3478723 306.318408,62.1376949 C303.096201,60.7707761 300.558565,58.5124147 299.443358,55.5596085 C298.188971,52.236341 299.032261,48.620831 301.516973,45.993717 C303.607227,43.7842667 307.031977,42.5477176 310.526053,41.979172 Z M329.988495,52.5484561 C330.101569,53.562803 329.368406,54.4764767 328.350928,54.5892034 C327.333451,54.7019301 326.416957,53.9710226 326.303883,52.9566757 C325.894442,49.2837497 321.808595,46.3087723 317.063242,45.5914628 C316.05107,45.4384625 315.354956,44.4964281 315.508429,43.4873702 C315.661902,42.4783124 316.606844,41.7843407 317.619016,41.9373411 C323.840768,42.8778238 329.3583,46.8952362 329.988495,52.5484561 Z M163.17747,44.6420922 C163.17747,43.6215008 164.007376,42.7941479 165.031117,42.7941479 C166.054859,42.7941479 166.884765,43.6215008 166.884765,44.6420922 L166.884765,66.7425433 C166.884765,73.8938428 172.327067,79.9068681 179.629718,81.0864185 C180.640281,81.2496482 181.326772,82.1986747 181.163039,83.2061284 C180.999305,84.2135821 180.04735,84.8979608 179.036786,84.734731 C169.982205,83.2722026 163.17747,75.753868 163.17747,66.7425433 L163.17747,44.6420922 Z M130.062165,43.0472521 C131.07273,42.8840324 132.024678,43.5684206 132.188402,44.5758759 C132.352125,45.5833312 131.665625,46.5323509 130.65506,46.6955706 C123.352138,47.8750903 117.910126,53.8879426 117.910126,61.0394428 L117.910126,66.742493 C117.910126,73.8939932 123.352138,79.9068455 130.65506,81.0863652 C131.665625,81.2495849 132.352125,82.1986046 132.188402,83.2060599 C132.024678,84.2135152 131.07273,84.8979034 130.062165,84.7346837 C121.007271,83.2721972 114.20283,75.7540037 114.20283,66.742493 L114.20283,61.0394428 C114.20283,52.0279321 121.007271,44.5097386 130.062165,43.0472521 Z M141.010135,84.7344825 C139.99957,84.8977022 139.047621,84.213314 138.883898,83.2058587 C138.720174,82.1984034 139.406675,81.2493837 140.417239,81.086164 C147.720162,79.9066443 153.162174,73.893792 153.162174,66.7422918 L153.162174,61.0392416 C153.162174,53.8877414 147.720162,47.8748891 140.417239,46.6953694 C139.406675,46.5321497 138.720174,45.58313 138.883898,44.5756747 C139.047621,43.5682194 139.99957,42.8838312 141.010135,43.0470509 C150.065028,44.5095374 156.86947,52.0277309 156.86947,61.0392416 L156.86947,66.7422918 C156.86947,75.7538025 150.065028,83.2719959 141.010135,84.7344825 Z M91.2999994,84.7957701 C90.284351,84.9238454 89.3568592,84.2068586 89.2283886,83.1943352 C89.099918,82.1818118 89.8191177,81.2571739 90.8347662,81.1290986 C96.4025729,80.426987 100.92961,77.487743 102.604978,73.0100396 C102.962761,72.0538048 104.030375,71.5677713 104.989561,71.9244532 C105.948747,72.2811352 106.436281,73.3454644 106.078498,74.3016992 C103.868737,80.2076562 98.1283197,83.9347052 91.2999994,84.7957701 Z M80.4157874,43.047264 C81.4263455,42.8840038 82.3783218,43.5683539 82.5420858,44.5758027 C82.7058499,45.5832515 82.0193876,46.5322986 81.0088294,46.6955587 C77.0469107,47.3356243 73.49277,49.4339649 71.1335426,52.5588617 C68.6888839,55.7973123 68.2638213,57.8283276 68.2638213,63.8904649 C68.2638213,69.9531252 68.6893869,71.9858196 71.1349398,75.2244288 C73.4937298,78.3484492 77.0473959,80.4463161 81.0088627,81.0863824 C82.0194179,81.2496609 82.7058629,82.1987205 82.5420804,83.2061663 C82.378298,84.2136121 81.4263092,84.8979449 80.415754,84.7346664 C75.5205881,83.9437394 71.1141614,81.3424549 68.173037,77.4471811 C65.1280574,73.41476 64.5565256,70.6848653 64.5565256,63.8904649 C64.5565256,57.0967487 65.1274563,54.3687532 68.1714192,50.3364015 C71.1130916,46.4400317 75.5200526,43.8381917 80.4157874,43.047264 Z M107.223418,63.1779609 C107.223418,64.1985523 106.393511,65.0259052 105.36977,65.0259052 C104.346029,65.0259052 103.516122,64.1985523 103.516122,63.1779609 C103.516125,63.1116023 103.516125,63.1116023 103.516133,63.0454336 C103.516388,60.9499593 103.486131,60.0484082 103.338869,58.9586316 C103.261099,58.3831104 103.153127,57.8440341 103.009211,57.3259041 C102.488522,55.4520388 101.672959,53.853854 100.45155,52.306816 C98.0913897,49.3180948 94.6214557,47.3172981 90.7711368,46.6953109 C89.7605765,46.5320632 89.0741025,45.5830246 89.237854,44.5755738 C89.4016055,43.568123 90.3535732,42.8837612 91.3641334,43.0470088 C96.121583,43.8155355 100.422977,46.2957602 103.3646,50.0207992 C104.888629,51.9511355 105.9293,53.9904449 106.58201,56.3394283 C106.772661,57.0258182 106.913475,57.728862 107.012976,58.4652011 C107.189731,59.7732385 107.223703,60.7854879 107.223429,63.0458815 C107.223421,63.1119753 107.223421,63.1119753 107.223418,63.1779609 Z M29.5680112,80.7340505 C30.5756425,80.9143963 31.2458386,81.8749287 31.0649362,82.8794596 C30.8840337,83.8839904 29.9205367,84.5521244 28.9129055,84.3717786 C19.5089849,82.688665 11.165709,76.7001743 10.0172824,68.3199971 C9.8787069,67.308799 10.5886374,66.3770689 11.6029566,66.2389198 C12.6172757,66.1007708 13.5518815,66.8085169 13.6904569,67.8197151 C14.5762423,74.2833742 21.5687662,79.3023457 29.5680112,80.7340505 Z M28.9286618,15.8629806 C29.9378166,15.69131 30.8954944,16.3677079 31.0676948,17.3737576 C31.2398953,18.3798074 30.5614097,19.3345384 29.5522549,19.506209 C24.957452,20.287846 21.4036566,21.9094603 18.9056046,24.6699863 C16.1521925,27.7135281 15.2441,31.7838399 16.5910703,35.5145981 C17.8565907,39.0177058 20.9112959,41.8598005 24.9252548,43.6399949 C25.477469,43.8849959 27.5900675,44.5960604 30.7032691,45.5944138 C30.864182,45.645997 30.864182,45.645997 31.0252424,45.6975545 C32.8533419,46.282553 37.2968348,47.6822479 37.3007339,47.6834991 C37.529701,47.7569263 37.767307,47.8318368 38.0196918,47.9102716 C38.4836567,48.0544601 38.7841829,48.1457659 39.7278314,48.4306479 C44.8915604,49.9895477 47.2588294,50.9257442 50.0346266,52.8530181 C54.6392403,56.0493214 57.3199602,60.3929062 57.3199602,65.6527251 C57.3199602,65.8393865 57.3207237,65.9908098 57.3230102,66.3301848 C57.3306791,67.4684214 57.3253397,67.9801048 57.2841857,68.6423061 C57.2293998,69.5238552 57.1136996,70.3229226 56.9114638,71.1049159 C56.0671721,74.3663351 54.4185715,76.7425272 51.6150949,79.0883693 C47.8983551,82.1997045 43.8832697,83.8035277 38.5923849,84.5437558 C37.5785781,84.6855938 36.6413881,83.9812522 36.4991124,82.9705649 C36.3568367,81.9598775 37.0633522,81.0255712 38.0771589,80.8837332 C42.7202553,80.2341348 46.0885158,78.8886854 49.2313891,76.2577419 C51.4793938,74.3766974 52.6859003,72.6377127 53.3216723,70.1817856 C53.4602012,69.6461306 53.5428858,69.0750805 53.583985,68.4137615 C53.618145,67.8640992 53.6228973,67.4086766 53.6157982,66.3550085 C53.6134561,66.0073852 53.6126646,65.8503988 53.6126646,65.6527251 C53.6126646,61.7110389 51.5927504,58.4381613 47.9160387,55.8859632 C45.5590302,54.2494601 43.4563416,53.4178985 38.6533523,51.967904 C37.699257,51.6798682 37.3936321,51.5870133 36.916369,51.4386921 C36.6537593,51.3570796 36.4055938,51.27884 36.1651369,51.2017282 C36.173096,51.2042822 31.7315199,49.805191 29.892175,49.216594 C29.730052,49.1646964 29.730052,49.1646964 29.5680189,49.1127541 C26.2480529,48.0480947 24.1548469,47.3435573 23.4181365,47.0167008 C18.5507313,44.8580023 14.7478429,41.3197986 13.1029663,36.7665886 C11.2804764,31.7187647 12.5060336,26.2254917 16.1527496,22.1945176 C19.2848157,18.7333607 23.5820546,16.7725094 28.9286618,15.8629806 Z M57.3529655,32.3621035 C57.46118,33.3769771 56.7236483,34.28715 55.7056424,34.3950315 C54.6876364,34.5029131 53.7746543,33.7676507 53.6664398,32.7527771 C52.9439112,25.9766498 46.0200775,20.7061316 38.0438352,19.4456352 C37.0327187,19.2858471 36.3429806,18.3391635 36.5032618,17.3311582 C36.6635431,16.3231529 37.6131486,15.635537 38.624265,15.7953251 C48.081261,17.289827 56.4228971,23.6395961 57.3529655,32.3621035 Z M73.4811343,64.262704 C72.4573929,64.262704 71.6274865,63.4353512 71.6274865,62.4147597 C71.6274865,61.3941683 72.4573929,60.5668154 73.4811343,60.5668154 L99.2255826,60.5668154 C100.249324,60.5668154 101.07923,61.3941683 101.07923,62.4147597 C101.07923,63.4353512 100.249324,64.262704 99.2255826,64.262704 L73.4811343,64.262704 Z M287.470511,25.5202888 C287.470511,26.5408802 286.640605,27.3682331 285.616863,27.3682331 C284.593122,27.3682331 283.763216,26.5408802 283.763216,25.5202888 L283.763216,16.9652105 C283.763216,15.9446191 284.593122,15.1172663 285.616863,15.1172663 C286.640605,15.1172663 287.470511,15.9446191 287.470511,16.9652105 L287.470511,25.5202888 Z M257.280416,92.4420109 C256.404797,91.9132294 256.124953,90.7769223 256.655367,89.9039979 C257.18578,89.0310734 258.325595,88.7520905 259.201213,89.280872 C263.094676,91.632114 268.112768,92.3096162 272.608801,91.1131083 C276.204088,90.1562231 279.315833,88.082655 281.311349,85.2352686 C282.147218,84.042484 282.731204,82.8285655 283.119546,81.4677011 C283.356079,80.6378183 283.489535,79.7588741 283.548746,78.7324295 C283.591424,77.9926071 283.595522,77.3859915 283.581347,75.9890671 C283.575693,75.43189 283.573767,75.1800041 283.5737,74.862897 C283.57349,68.2073356 283.573322,63.981109 283.572944,55.2957598 C283.572565,46.6103969 283.572397,42.384158 283.572187,35.7285784 C283.572154,34.7079869 284.402035,33.880608 285.425776,33.8805759 C286.449518,33.8805437 287.27945,34.7078705 287.279482,35.728462 C287.279693,42.3840234 287.279861,46.61025 287.280239,55.2955992 C287.280618,63.9809621 287.280786,68.207201 287.280996,74.8624498 C287.281059,75.1629906 287.282922,75.4066613 287.288453,75.9516807 C287.303473,77.4319237 287.299001,78.0939081 287.249927,78.9446233 C287.176122,80.2240523 287.002904,81.3648735 286.685515,82.4784387 C286.182977,84.2394832 285.419682,85.8261252 284.350423,87.3519576 C281.837014,90.9383206 277.979042,93.5091509 273.56501,94.683945 C268.103233,96.1374618 262.045447,95.3195885 257.280416,92.4420109 Z M310.056137,81.0152338 C311.065109,81.1879681 311.742582,82.1434137 311.569314,83.1492814 C311.396047,84.1551491 310.437652,84.8305371 309.42868,84.6578029 C303.252076,83.600379 297.748927,79.8221623 296.969626,74.3827737 C296.824875,73.3724358 297.5291,72.4364121 298.542556,72.2921064 C299.556012,72.1478007 300.494925,72.8498586 300.639676,73.8601965 C301.14008,77.3529356 305.284555,80.1983473 310.056137,81.0152338 Z"/>
    <filter id="bi_light-a" width="109.4%" height="135.1%" x="-4.7%" y="-17.6%" filterUnits="objectBoundingBox">
      <feOffset in="SourceAlpha" result="shadowOffsetOuter1"/>
      <feGaussianBlur in="shadowOffsetOuter1" result="shadowBlurOuter1" stdDeviation="5"/>
      <feColorMatrix in="shadowBlurOuter1" values="0 0 0 0 0.964705882   0 0 0 0 1   0 0 0 0 0  0 0 0 0.5 0"/>
    </filter>
  </defs>
  <g fill="none">
    <use fill="#000" filter="url(#bi_light-a)" xlink:href="#bi_light-b"/>
    <use fill="#F6FF00" fill-rule="evenodd" xlink:href="#bi_light-b"/>
  </g>
</svg>
