<svg xmlns="http://www.w3.org/2000/svg" width="320" height="86" viewBox="0 0 320 86">
  <path fill="#FFF" d="M216.376887,63.6260383 C216.377114,63.5843516 216.377227,63.5425209 216.377227,63.500542 L216.377227,1.84794429 C216.377227,0.827352839 215.54732,0 214.523579,0 C213.499837,0 212.669931,0.827352839 212.669931,1.84794429 L212.669931,63.500542 C212.669931,64.3988382 212.608356,65.1855399 212.472372,65.9299266 C211.961003,68.7318929 210.512938,70.7049379 208.394791,71.1809531 C207.39611,71.4053886 206.769022,72.3944294 206.99415,73.3900375 C207.219278,74.3856457 208.211372,75.0108046 209.210053,74.7863691 C211.51234,74.2689717 213.288966,72.8773703 214.49779,70.9420589 C216.006025,73.4123586 218.425619,74.9875867 221.674545,74.9875867 C222.698287,74.9875867 223.528193,74.1602338 223.528193,73.1396424 C223.528193,72.1190509 222.698287,71.2916981 221.674545,71.2916981 C218.350099,71.2916981 216.377126,68.1102595 216.377126,63.6560203 C216.377126,63.6460075 216.377046,63.6360133 216.376887,63.6260383 Z M194.917538,55.2776118 C194.91768,55.1768404 194.91774,55.1115781 194.91774,55.0630156 L194.91774,34.6420922 C194.91774,33.6215008 194.087833,32.7941479 193.064092,32.7941479 C192.04035,32.7941479 191.210444,33.6215008 191.210444,34.6420922 L191.210444,51.0116908 C191.21031,51.0208584 191.210242,51.0300422 191.210242,51.0392416 L191.210242,55.2750857 C191.210012,55.4377167 191.209564,55.6952716 191.208801,56.1299376 C191.208315,56.4328482 191.207924,56.7265592 191.207642,57.0128672 C191.0724,64.0449933 185.67594,69.9215503 178.465308,71.086164 C177.454743,71.2493837 176.768242,72.1984034 176.931966,73.2058587 C177.095689,74.213314 178.047638,74.8977022 179.058203,74.7344825 C184.256551,73.8948796 188.71319,71.0594224 191.566455,67.0913642 C192.404624,70.9485834 194.707887,73.9618378 198.377771,74.7862526 C199.376471,75.0106039 200.368511,74.3853612 200.593555,73.3897341 C200.818599,72.3941069 200.191426,71.405119 199.192726,71.1807678 C196.848778,70.6542155 195.334783,68.283405 194.991048,65.0695058 C194.952053,64.7037609 194.92547,62.8336408 194.917422,60.1591304 C194.914427,59.1637879 194.913837,58.162632 194.914904,57.0491579 C194.916658,56.9470668 194.917538,56.8447759 194.917538,56.7422918 L194.917538,55.2776118 Z M242.052552,69.4023197 C242.052552,72.4869586 239.544357,74.9874358 236.450198,74.9874358 C233.356013,74.9874358 230.847182,72.4869337 230.847182,69.4023197 C230.847182,66.3177057 233.356013,63.8172036 236.450198,63.8172036 C239.544357,63.8172036 242.052552,66.3176808 242.052552,69.4023197 Z M238.345256,69.4023197 C238.345256,68.3588637 237.496874,67.5130922 236.450198,67.5130922 C235.403294,67.5130922 234.554478,68.3590902 234.554478,69.4023197 C234.554478,70.4455491 235.403294,71.2915472 236.450198,71.2915472 C237.496874,71.2915472 238.345256,70.4457757 238.345256,69.4023197 Z M300.526053,31.979172 C301.536424,31.8147673 302.48918,32.4980387 302.654092,33.5053013 C302.819004,34.512564 302.133624,35.462388 301.123252,35.6267926 C298.36327,36.0758888 295.665693,36.9950519 294.214153,38.5293656 C292.672531,40.1593402 292.17356,42.2986202 292.913002,44.2576364 C293.628753,46.1527763 295.405172,47.7336946 297.770241,48.7370001 C298.085752,48.8708966 300.010041,49.2999373 301.932931,49.8897664 C302.03397,49.9207478 302.03397,49.9207478 302.135111,49.9517169 C303.283248,50.3031506 306.078937,51.1455007 306.083343,51.146853 C306.228969,51.1915232 306.380387,51.2371666 306.541755,51.2851026 C306.828264,51.3702128 307.014101,51.4242081 307.599947,51.5933729 C310.912125,52.5497746 312.446243,53.130088 314.267278,54.3397395 C317.350019,56.3865925 319.176766,59.2177892 319.176766,62.6673172 C319.176766,62.7771957 319.17724,62.8670789 319.178665,63.0694645 C319.183622,63.7731414 319.180127,64.0935271 319.152616,64.5169503 C319.114993,65.0960164 319.0346,65.6271 318.892784,66.1516208 C318.315838,68.2834094 317.186593,69.8402683 315.311245,71.341261 C312.868416,73.2972774 310.23108,74.3049561 306.792424,74.7651288 C305.777784,74.9009115 304.844842,74.1909872 304.70864,73.1794686 C304.572438,72.1679499 305.284553,71.2378784 306.299194,71.1020957 C309.109923,70.7259544 311.117388,69.9589383 312.989996,68.4595073 C314.292381,67.4171035 314.95926,66.4976966 315.313359,65.1893168 C315.385966,64.9207695 315.430376,64.6273989 315.453073,64.2780597 C315.472942,63.9722563 315.475795,63.7106958 315.471461,63.0954164 C315.469975,62.8844077 315.46947,62.7887085 315.46947,62.6673172 C315.46947,60.5799331 314.339087,58.8280009 312.211905,57.4156116 C310.804888,56.4809787 309.527263,55.9976893 306.568543,55.1433496 C305.97281,54.9713299 305.782162,54.9159365 305.48307,54.8270885 C305.311606,54.7761535 305.149755,54.7273652 304.992759,54.6792073 C304.999831,54.6813781 302.205998,53.839587 301.046976,53.4848216 C300.944806,53.4535376 300.944806,53.4535376 300.842682,53.4222236 C298.718519,52.7706557 296.813665,52.3478723 296.318408,52.1376949 C293.096201,50.7707761 290.558565,48.5124147 289.443358,45.5596085 C288.188971,42.236341 289.032261,38.620831 291.516973,35.993717 C293.607227,33.7842667 297.031977,32.5477176 300.526053,31.979172 Z M319.988495,42.5484561 C320.101569,43.562803 319.368406,44.4764767 318.350928,44.5892034 C317.333451,44.7019301 316.416957,43.9710226 316.303883,42.9566757 C315.894442,39.2837497 311.808595,36.3087723 307.063242,35.5914628 C306.05107,35.4384625 305.354956,34.4964281 305.508429,33.4873702 C305.661902,32.4783124 306.606844,31.7843407 307.619016,31.9373411 C313.840768,32.8778238 319.3583,36.8952362 319.988495,42.5484561 Z M153.17747,34.6420922 C153.17747,33.6215008 154.007376,32.7941479 155.031117,32.7941479 C156.054859,32.7941479 156.884765,33.6215008 156.884765,34.6420922 L156.884765,56.7425433 C156.884765,63.8938428 162.327067,69.9068681 169.629718,71.0864185 C170.640281,71.2496482 171.326772,72.1986747 171.163039,73.2061284 C170.999305,74.2135821 170.04735,74.8979608 169.036786,74.734731 C159.982205,73.2722026 153.17747,65.753868 153.17747,56.7425433 L153.17747,34.6420922 Z M120.062165,33.0472521 C121.07273,32.8840324 122.024678,33.5684206 122.188402,34.5758759 C122.352125,35.5833312 121.665625,36.5323509 120.65506,36.6955706 C113.352138,37.8750903 107.910126,43.8879426 107.910126,51.0394428 L107.910126,56.742493 C107.910126,63.8939932 113.352138,69.9068455 120.65506,71.0863652 C121.665625,71.2495849 122.352125,72.1986046 122.188402,73.2060599 C122.024678,74.2135152 121.07273,74.8979034 120.062165,74.7346837 C111.007271,73.2721972 104.20283,65.7540037 104.20283,56.742493 L104.20283,51.0394428 C104.20283,42.0279321 111.007271,34.5097386 120.062165,33.0472521 Z M131.010135,74.7344825 C129.99957,74.8977022 129.047621,74.213314 128.883898,73.2058587 C128.720174,72.1984034 129.406675,71.2493837 130.417239,71.086164 C137.720162,69.9066443 143.162174,63.893792 143.162174,56.7422918 L143.162174,51.0392416 C143.162174,43.8877414 137.720162,37.8748891 130.417239,36.6953694 C129.406675,36.5321497 128.720174,35.58313 128.883898,34.5756747 C129.047621,33.5682194 129.99957,32.8838312 131.010135,33.0470509 C140.065028,34.5095374 146.86947,42.0277309 146.86947,51.0392416 L146.86947,56.7422918 C146.86947,65.7538025 140.065028,73.2719959 131.010135,74.7344825 Z M81.2999994,74.7957701 C80.284351,74.9238454 79.3568592,74.2068586 79.2283886,73.1943352 C79.099918,72.1818118 79.8191177,71.2571739 80.8347662,71.1290986 C86.4025729,70.426987 90.9296095,67.487743 92.6049778,63.0100396 C92.9627606,62.0538048 94.0303749,61.5677713 94.989561,61.9244532 C95.948747,62.2811352 96.4362807,63.3454644 96.0784979,64.3016992 C93.8687372,70.2076562 88.1283197,73.9347052 81.2999994,74.7957701 Z M70.4157874,33.047264 C71.4263455,32.8840038 72.3783218,33.5683539 72.5420858,34.5758027 C72.7058499,35.5832515 72.0193876,36.5322986 71.0088294,36.6955587 C67.0469107,37.3356243 63.49277,39.4339649 61.1335426,42.5588617 C58.6888839,45.7973123 58.2638213,47.8283276 58.2638213,53.8904649 C58.2638213,59.9531252 58.6893869,61.9858196 61.1349398,65.2244288 C63.4937298,68.3484492 67.0473959,70.4463161 71.0088627,71.0863824 C72.0194179,71.2496609 72.7058629,72.1987205 72.5420804,73.2061663 C72.378298,74.2136121 71.4263092,74.8979449 70.415754,74.7346664 C65.5205881,73.9437394 61.1141614,71.3424549 58.173037,67.4471811 C55.1280574,63.41476 54.5565256,60.6848653 54.5565256,53.8904649 C54.5565256,47.0967487 55.1274563,44.3687532 58.1714192,40.3364015 C61.1130916,36.4400317 65.5200526,33.8381917 70.4157874,33.047264 Z M97.2234178,53.1779609 C97.2234178,54.1985523 96.3935114,55.0259052 95.36977,55.0259052 C94.3460286,55.0259052 93.5161222,54.1985523 93.5161222,53.1779609 C93.5161249,53.1116023 93.5161249,53.1116023 93.5161329,53.0454336 C93.5163876,50.9499593 93.4861305,50.0484082 93.3388693,48.9586316 C93.2610993,48.3831104 93.153127,47.8440341 93.0092115,47.3259041 C92.488522,45.4520388 91.6729595,43.853854 90.4515501,42.306816 C88.0913897,39.3180948 84.6214557,37.3172981 80.7711368,36.6953109 C79.7605765,36.5320632 79.0741025,35.5830246 79.237854,34.5755738 C79.4016055,33.568123 80.3535732,32.8837612 81.3641334,33.0470088 C86.121583,33.8155355 90.4229775,36.2957602 93.3646,40.0207992 C94.8886291,41.9511355 95.9293,43.9904449 96.5820101,46.3394283 C96.7726614,47.0258182 96.913475,47.728862 97.0129763,48.4652011 C97.189731,49.7732385 97.2237033,50.7854879 97.2234285,53.0458815 C97.2234205,53.1119753 97.2234205,53.1119753 97.2234178,53.1779609 Z M19.5680112,70.7340505 C20.5756425,70.9143963 21.2458386,71.8749287 21.0649362,72.8794596 C20.8840337,73.8839904 19.9205367,74.5521244 18.9129055,74.3717786 C9.50898494,72.688665 1.165709,66.7001743 0.0172823588,58.3199971 C-0.121293103,57.308799 0.588637428,56.3770689 1.60295658,56.2389198 C2.61727573,56.1007708 3.55188148,56.8085169 3.69045694,57.8197151 C4.57624231,64.2833742 11.5687662,69.3023457 19.5680112,70.7340505 Z M18.9286618,5.86298059 C19.9378166,5.69130996 20.8954944,6.36770788 21.0676948,7.37375763 C21.2398953,8.37980738 20.5614097,9.33453839 19.5522549,9.50620902 C14.957452,10.287846 11.4036566,11.9094603 8.90560464,14.6699863 C6.15219251,17.7135281 5.24410004,21.7838399 6.59107034,25.5145981 C7.85659069,29.0177058 10.9112959,31.8598005 14.9252548,33.6399949 C15.477469,33.8849959 17.5900675,34.5960604 20.7032691,35.5944138 C20.864182,35.645997 20.864182,35.645997 21.0252424,35.6975545 C22.8533419,36.282553 27.2968348,37.6822479 27.3007339,37.6834991 C27.529701,37.7569263 27.767307,37.8318368 28.0196918,37.9102716 C28.4836567,38.0544601 28.7841829,38.1457659 29.7278314,38.4306479 C34.8915604,39.9895477 37.2588294,40.9257442 40.0346266,42.8530181 C44.6392403,46.0493214 47.3199602,50.3929062 47.3199602,55.6527251 C47.3199602,55.8393865 47.3207237,55.9908098 47.3230102,56.3301848 C47.3306791,57.4684214 47.3253397,57.9801048 47.2841857,58.6423061 C47.2293998,59.5238552 47.1136996,60.3229226 46.9114638,61.1049159 C46.0671721,64.3663351 44.4185715,66.7425272 41.6150949,69.0883693 C37.8983551,72.1997045 33.8832697,73.8035277 28.5923849,74.5437558 C27.5785781,74.6855938 26.6413881,73.9812522 26.4991124,72.9705649 C26.3568367,71.9598775 27.0633522,71.0255712 28.0771589,70.8837332 C32.7202553,70.2341348 36.0885158,68.8886854 39.2313891,66.2577419 C41.4793938,64.3766974 42.6859003,62.6377127 43.3216723,60.1817856 C43.4602012,59.6461306 43.5428858,59.0750805 43.583985,58.4137615 C43.618145,57.8640992 43.6228973,57.4086766 43.6157982,56.3550085 C43.6134561,56.0073852 43.6126646,55.8503988 43.6126646,55.6527251 C43.6126646,51.7110389 41.5927504,48.4381613 37.9160387,45.8859632 C35.5590302,44.2494601 33.4563416,43.4178985 28.6533523,41.967904 C27.699257,41.6798682 27.3936321,41.5870133 26.916369,41.4386921 C26.6537593,41.3570796 26.4055938,41.27884 26.1651369,41.2017282 C26.173096,41.2042822 21.7315199,39.805191 19.892175,39.216594 C19.730052,39.1646964 19.730052,39.1646964 19.5680189,39.1127541 C16.2480529,38.0480947 14.1548469,37.3435573 13.4181365,37.0167008 C8.55073127,34.8580023 4.74784289,31.3197986 3.10296628,26.7665886 C1.2804764,21.7187647 2.50603358,16.2254917 6.1527496,12.1945176 C9.28481572,8.73336066 13.5820546,6.77250943 18.9286618,5.86298059 Z M47.3529655,22.3621035 C47.46118,23.3769771 46.7236483,24.28715 45.7056424,24.3950315 C44.6876364,24.5029131 43.7746543,23.7676507 43.6664398,22.7527771 C42.9439112,15.9766498 36.0200775,10.7061316 28.0438352,9.44563518 C27.0327187,9.28584708 26.3429806,8.33916349 26.5032618,7.3311582 C26.6635431,6.32315291 27.6131486,5.63553701 28.624265,5.79532511 C38.081261,7.289827 46.4228971,13.6395961 47.3529655,22.3621035 Z M63.4811343,54.262704 C62.4573929,54.262704 61.6274865,53.4353512 61.6274865,52.4147597 C61.6274865,51.3941683 62.4573929,50.5668154 63.4811343,50.5668154 L89.2255826,50.5668154 C90.2493241,50.5668154 91.0792305,51.3941683 91.0792305,52.4147597 C91.0792305,53.4353512 90.2493241,54.262704 89.2255826,54.262704 L63.4811343,54.262704 Z M277.470511,15.5202888 C277.470511,16.5408802 276.640605,17.3682331 275.616863,17.3682331 C274.593122,17.3682331 273.763216,16.5408802 273.763216,15.5202888 L273.763216,6.96521055 C273.763216,5.9446191 274.593122,5.11726626 275.616863,5.11726626 C276.640605,5.11726626 277.470511,5.9446191 277.470511,6.96521055 L277.470511,15.5202888 Z M247.280416,82.4420109 C246.404797,81.9132294 246.124953,80.7769223 246.655367,79.9039979 C247.18578,79.0310734 248.325595,78.7520905 249.201213,79.280872 C253.094676,81.632114 258.112768,82.3096162 262.608801,81.1131083 C266.204088,80.1562231 269.315833,78.082655 271.311349,75.2352686 C272.147218,74.042484 272.731204,72.8285655 273.119546,71.4677011 C273.356079,70.6378183 273.489535,69.7588741 273.548746,68.7324295 C273.591424,67.9926071 273.595522,67.3859915 273.581347,65.9890671 C273.575693,65.43189 273.573767,65.1800041 273.5737,64.862897 C273.57349,58.2073356 273.573322,53.981109 273.572944,45.2957598 C273.572565,36.6103969 273.572397,32.384158 273.572187,25.7285784 C273.572154,24.7079869 274.402035,23.880608 275.425776,23.8805759 C276.449518,23.8805437 277.27945,24.7078705 277.279482,25.728462 C277.279693,32.3840234 277.279861,36.61025 277.280239,45.2955992 C277.280618,53.9809621 277.280786,58.207201 277.280996,64.8624498 C277.281059,65.1629906 277.282922,65.4066613 277.288453,65.9516807 C277.303473,67.4319237 277.299001,68.0939081 277.249927,68.9446233 C277.176122,70.2240523 277.002904,71.3648735 276.685515,72.4784387 C276.182977,74.2394832 275.419682,75.8261252 274.350423,77.3519576 C271.837014,80.9383206 267.979042,83.5091509 263.56501,84.683945 C258.103233,86.1374618 252.045447,85.3195885 247.280416,82.4420109 Z M300.056137,71.0152338 C301.065109,71.1879681 301.742582,72.1434137 301.569314,73.1492814 C301.396047,74.1551491 300.437652,74.8305371 299.42868,74.6578029 C293.252076,73.600379 287.748927,69.8221623 286.969626,64.3827737 C286.824875,63.3724358 287.5291,62.4364121 288.542556,62.2921064 C289.556012,62.1478007 290.494925,62.8498586 290.639676,63.8601965 C291.14008,67.3529356 295.284555,70.1983473 300.056137,71.0152338 Z"/>
</svg>
